<?xml version="1.0" ?><!-- Uploaded to: SVG Repo, www.svgrepo.com, Generator: SVG Repo Mixer Tools -->
<svg width="800px" height="800px" viewBox="0 0 64 64" data-name="Layer 1" id="Layer_1" xmlns="http://www.w3.org/2000/svg"><defs><style>.cls-1{fill:#0074ff;}.cls-2{fill:#ffb300;}</style></defs><title/><path class="cls-1" d="M44.58,55.79H19.42a2,2,0,0,1-1.73-1L5.11,33a2,2,0,0,1,0-2L17.69,9.21a2,2,0,0,1,1.73-1H44.58a2,2,0,0,1,1.73,1L58.89,31a2,2,0,0,1,0,2l-4.66,8.08a2,2,0,0,1-3.47-2L54.85,32,43.43,12.21H20.57L9.15,32,20.57,51.79H43.43l1.76-3a2,2,0,0,1,3.46,2l-2.34,4A2,2,0,0,1,44.58,55.79Z"/><path class="cls-2" d="M36.7,42.15H27.3a2,2,0,0,1-1.74-1L20.86,33a2,2,0,0,1,0-2l4.7-8.15a2,2,0,0,1,1.74-1h9.4a2,2,0,0,1,1.74,1L43.14,31a2,2,0,0,1,0,2l-4.7,8.15A2,2,0,0,1,36.7,42.15Zm-8.25-4h7.1L39.1,32l-3.55-6.15h-7.1L24.9,32Z"/></svg>